<?xml version="1.0" encoding="UTF-8"?>
<svg width="2178px" height="354px" viewBox="0 0 2178 354" version="1.1" xmlns="http://www.w3.org/2000/svg" xmlns:xlink="http://www.w3.org/1999/xlink">
    <!-- Generator: Sketch 41.2 (35397) - http://www.bohemiancoding.com/sketch -->
    <title>logo</title>
    <desc>Created with Sketch.</desc>
    <defs></defs>
    <g id="Page-1" stroke="none" stroke-width="1" fill="none" fill-rule="evenodd">
        <g id="Artboard" transform="translate(-2111.000000, -723.000000)" fill="#FFFFFF">
            <g id="logo" transform="translate(2111.000000, 723.000000)">
                <g id="PPC">
                    <path d="M850.587,109.973 L895.522,109.973 C892.999321,91.9989101 887.638708,76.1535686 879.44,62.4365 C871.241292,48.7194314 860.993061,37.2887124 848.695,28.144 C836.396939,18.9992876 822.364746,12.0620236 806.598,7.332 C790.831254,2.60197635 774.118755,0.237 756.46,0.237 C730.602537,0.237 707.662267,4.88812016 687.6385,14.1905 C667.614733,23.4928798 650.902234,36.1849196 637.5005,52.267 C624.098766,68.3490804 613.929368,87.1900587 606.992,108.7905 C600.054632,130.390941 596.586,153.488877 596.586,178.085 C596.586,202.681123 599.818134,225.700226 606.2825,247.143 C612.746866,268.585774 622.443269,287.190255 635.372,302.957 C648.300731,318.723745 664.540236,331.100455 684.091,340.0875 C703.641764,349.074545 726.503202,353.568 752.676,353.568 C795.876883,353.568 829.932542,341.743118 854.844,318.093 C879.755458,294.442882 894.418311,261.333213 898.833,218.763 L853.898,218.763 C852.951995,232.637736 850.114024,245.566273 845.384,257.549 C840.653976,269.531727 834.110875,279.85879 825.7545,288.5305 C817.398125,297.20221 807.465224,303.981809 795.9555,308.8695 C784.445776,313.757191 771.280741,316.201 756.46,316.201 C736.278566,316.201 718.935406,312.417038 704.43,304.849 C689.924594,297.280962 678.02088,287.111564 668.7185,274.3405 C659.41612,261.569436 652.557689,246.591253 648.143,229.4055 C643.728311,212.219747 641.521,194.00943 641.521,174.774 C641.521,157.115245 643.728311,140.087415 648.143,123.69 C652.557689,107.292585 659.41612,92.7085639 668.7185,79.9375 C678.02088,67.1664361 689.845762,56.9970378 704.1935,49.429 C718.541238,41.8609622 735.805566,38.077 755.987,38.077 C779.637118,38.077 800.054747,44.0682734 817.2405,56.051 C834.426253,68.0337266 845.541641,86.0075468 850.587,109.973 Z" id="C"></path>
                    <path d="M45.072,170.044 L45.072,46.118 L133.05,46.118 C158.592128,46.118 177.275441,51.3997805 189.1005,61.9635 C200.925559,72.5272195 206.838,87.8995658 206.838,108.081 C206.838,128.262434 200.925559,143.713613 189.1005,154.435 C177.275441,165.156387 158.592128,170.359335 133.05,170.044 L45.072,170.044 Z M0.137,8.278 L0.137,346 L45.072,346 L45.072,207.884 L148.186,207.884 C182.24217,208.199335 208.020412,199.527755 225.5215,181.869 C243.022588,164.210245 251.773,139.614491 251.773,108.081 C251.773,76.547509 243.022588,52.0305875 225.5215,34.5295 C208.020412,17.0284125 182.24217,8.278 148.186,8.278 L0.137,8.278 Z M351.576,170.044 L351.576,46.118 L439.554,46.118 C465.096128,46.118 483.779441,51.3997805 495.6045,61.9635 C507.429559,72.5272195 513.342,87.8995658 513.342,108.081 C513.342,128.262434 507.429559,143.713613 495.6045,154.435 C483.779441,165.156387 465.096128,170.359335 439.554,170.044 L351.576,170.044 Z M306.641,8.278 L306.641,346 L351.576,346 L351.576,207.884 L454.69,207.884 C488.74617,208.199335 514.524412,199.527755 532.0255,181.869 C549.526588,164.210245 558.277,139.614491 558.277,108.081 C558.277,76.547509 549.526588,52.0305875 532.0255,34.5295 C514.524412,17.0284125 488.74617,8.278 454.69,8.278 L306.641,8.278 Z"></path>
                </g>
                <g id="博普云" transform="translate(996.000000, 8.000000)">
                    <path d="M0.873046875,116.757812 L0.873046875,80.7875977 L37.0419922,80.7875977 L37.0419922,0.103027344 L74.4033203,0.103027344 L74.4033203,80.7875977 L109.976074,80.7875977 L109.976074,116.757812 L74.4033203,116.757812 L74.4033203,340.130859 L37.0419922,340.130859 L37.0419922,116.757812 L0.873046875,116.757812 Z M116.136719,265.010742 L116.136719,235.201172 L308.905273,235.201172 L308.905273,218.507812 L346.067871,218.507812 L346.067871,235.201172 L367.332031,235.201172 L367.332031,265.010742 L346.067871,265.010742 L346.067871,295.615234 C346.067871,306.479221 343.815615,315.289517 339.311035,322.046387 C332.686653,331.850472 322.882715,336.752441 309.898926,336.752441 L262.203613,336.752441 L262.203613,303.564453 L291.416992,303.365723 C299.631226,303.365723 304.731924,301.842138 306.719238,298.794922 C308.176602,296.410144 308.905273,293.164246 308.905273,289.057129 L308.905273,265.010742 L116.136719,265.010742 Z M119.316406,214.135742 L119.316406,110.000977 C119.316406,95.5598236 123.092247,84.6297571 130.644043,77.2104492 C137.930863,70.1886042 147.801045,66.6777344 160.254883,66.6777344 L222.258789,66.6777344 L222.258789,49.984375 L119.316406,49.984375 L119.316406,18.7836914 L222.258789,18.7836914 L222.258789,0.103027344 L259.222656,0.103027344 L259.222656,18.7836914 L315.264648,18.7836914 L315.264648,0.103027344 L352.029785,0.103027344 L352.029785,18.7836914 L368.126953,18.7836914 L368.126953,49.984375 L259.222656,49.984375 L259.222656,66.6777344 L310.495117,66.6777344 C329.838313,66.6777344 343.484335,69.7249044 351.433594,75.8193359 C360.972704,83.1061562 365.742188,93.7712514 365.742188,107.814941 L365.742188,214.135742 L331.560547,214.135742 L331.560547,192.275391 L259.222656,192.275391 L259.222656,215.924316 L222.258789,215.924316 L222.258789,192.275391 L153.696777,192.275391 L153.696777,214.135742 L119.316406,214.135742 Z M153.696777,163.459473 L222.258789,163.459473 L222.258789,144.580078 L153.696777,144.580078 L153.696777,163.459473 Z M153.696777,114.770508 L222.258789,114.770508 L222.258789,95.8911133 L170.390137,95.8911133 C159.261175,95.8911133 153.696777,100.196897 153.696777,108.808594 L153.696777,114.770508 Z M259.222656,163.459473 L331.560547,163.459473 L331.560547,144.580078 L259.222656,144.580078 L259.222656,163.459473 Z M259.222656,114.770508 L331.560547,114.770508 L331.560547,110.000977 C331.560547,100.594354 324.671293,95.8911133 310.892578,95.8911133 L259.222656,95.8911133 L259.222656,114.770508 Z M133.82373,315.488281 L133.82373,282.896484 L235.17627,282.896484 L235.17627,315.488281 L133.82373,315.488281 Z M408.071777,171.408691 L408.071777,134.643555 L514.790039,134.643555 L514.790039,54.7539062 L409.26416,54.7539062 L409.26416,17.9887695 L463.517578,17.9887695 L463.517578,1.09667969 L500.481445,1.09667969 L500.481445,17.9887695 L685.499512,17.9887695 L685.499512,1.09667969 L722.264648,1.09667969 L722.264648,17.9887695 L773.93457,17.9887695 L773.93457,54.7539062 L668.806152,54.7539062 L668.806152,134.643555 L775.325684,134.643555 L775.325684,171.408691 L408.071777,171.408691 Z M551.555176,134.643555 L632.041016,134.643555 L632.041016,54.7539062 L551.555176,54.7539062 L551.555176,134.643555 Z M413.63623,298.993652 L413.63623,231.425293 C413.63623,218.176529 417.014615,208.240105 423.771484,201.615723 C430.528354,194.991341 441.325935,191.679199 456.164551,191.679199 L720.873535,191.679199 C738.361904,191.679199 750.815555,194.593884 758.234863,200.42334 C765.919146,206.385284 769.76123,215.261823 769.76123,227.053223 L769.76123,299.987305 C769.76123,311.646217 766.515332,320.588999 760.023438,326.815918 C754.988907,331.717961 749.623238,334.698888 743.92627,335.758789 C740.084128,336.421227 734.321002,336.752441 726.636719,336.752441 L448.612793,336.752441 C436.821393,336.752441 427.878611,332.910357 421.78418,325.226074 C416.352186,318.204229 413.63623,309.460176 413.63623,298.993652 Z M732.797363,281.306641 L450.401367,281.306641 L450.401367,291.243164 C450.401367,299.32491 455.237094,303.365723 464.908691,303.365723 L712.725586,303.365723 C721.602258,303.365723 727.100413,302.239595 729.220215,299.987305 C731.604992,297.470039 732.797363,294.157898 732.797363,290.050781 L732.797363,281.306641 Z M450.401367,246.330078 L732.797363,246.330078 L732.797363,239.175781 C732.797363,230.564085 727.961637,226.258301 718.290039,226.258301 L465.107422,226.258301 C455.303336,226.258301 450.401367,230.564085 450.401367,239.175781 L450.401367,246.330078 Z M815.469238,146.766113 L815.469238,110.597168 L1181.53076,110.597168 L1181.53076,146.766113 L895.160156,146.766113 L863.164551,269.780273 C862.10465,273.88739 861.574707,277.729474 861.574707,281.306641 C861.574707,288.725949 864.489391,294.091618 870.318848,297.403809 C873.763526,299.391123 877.208153,300.384766 880.652832,300.384766 L1108.00049,300.384766 C1118.46701,300.384766 1124.95881,299.921066 1127.47607,298.993652 C1134.36543,296.3439 1137.81006,290.911988 1137.81006,282.697754 C1137.81006,279.518051 1137.47884,276.537123 1136.81641,273.754883 L1116.74463,190.486816 L1154.70215,190.486816 L1172.58789,268.19043 C1174.97267,278.524466 1176.16504,287.732219 1176.16504,295.813965 C1176.16504,309.460192 1169.67324,320.588987 1156.68945,329.200684 C1147.68029,335.162627 1133.90179,338.143555 1115.35352,338.143555 L878.864258,338.143555 C863.893154,338.143555 851.240774,334.500199 840.906738,327.213379 C828.4529,318.469195 822.226074,306.214272 822.226074,290.448242 C822.226074,285.016249 823.219717,278.458209 825.207031,270.773926 L857.202637,146.766113 L815.469238,146.766113 Z M822.424805,38.4580078 L822.424805,2.88525391 L1175.37012,2.88525391 L1175.37012,38.4580078 L822.424805,38.4580078 Z"></path>
                    <rect id="right_point" x="699.199951" y="78" width="74.0999985" height="31.2099991"></rect>
                    <rect id="left_point" x="411" y="78" width="74.3799973" height="31.2099991"></rect>
                </g>
            </g>
        </g>
    </g>
</svg>